<?xml version="1.0" encoding="iso-8859-1"?>
<!-- Uploaded to: SVG Repo, www.svgrepo.com, Generator: SVG Repo Mixer Tools -->
<!DOCTYPE svg PUBLIC "-//W3C//DTD SVG 1.1//EN" "http://www.w3.org/Graphics/SVG/1.1/DTD/svg11.dtd">
<svg fill="#000000" version="1.1" id="Capa_1" xmlns="http://www.w3.org/2000/svg" xmlns:xlink="http://www.w3.org/1999/xlink" 
	 width="800px" height="600px" viewBox="0 0 344.339 344.339"
	 xml:space="preserve">
<g>
	<g>
		<g>
			<path d="M291.749,166.102h-33.051V118.76h-17.876c-1.447-30.552-26.403-54.388-57.075-54.388
				c-24.761,0-46.823,16.174-54.386,39.589c-7.581-23.415-29.64-39.589-54.395-39.589c-30.669,0-55.628,23.836-57.084,54.388H0
				v161.208h258.687v-35.23h33.062l52.59,16.31V149.808L291.749,166.102z M70.713,149.844c-14.856,0-26.938-12.082-26.938-26.946
				c0-14.847,12.075-26.932,26.938-26.932c14.861,0,26.931,12.079,26.931,26.932C97.644,137.762,85.574,149.844,70.713,149.844z
				 M183.23,149.844c-14.862,0-26.938-12.082-26.938-26.946c0-14.847,12.076-26.932,26.938-26.932
				c14.855,0,26.938,12.079,26.938,26.932C210.168,137.762,198.099,149.844,183.23,149.844z"/>
		</g>
	</g>
</g>
</svg>